# xmcd CD database file
#
# Track frame offsets:
#	150
#	12318
#	23808
#	34351
#	46793
#	62501
#	73609
#	84870
#	106921
#	116896
#	126677
#	136328
#	153225
#	171820
#	185401
#	204582
#	216006
#	230165
#	241809
#
# Disc length: 3367 seconds
#
# Revision: 0
# Processed by: cddbd v1.5.2PL0 Copyright (c) Steve Scherf et al.
# Submitted via: CDex 1.70beta1
#
DISCID=080d2513
DTITLE=Georgie Fame - Sound Venture
DYEAR=1900
DGENRE=Jazz
TTITLE0=Many Happy Returns
TTITLE1=Down For The Count
TTITLE2=It's For Love The Petals Fall
TTITLE3=I Am Missing You
TTITLE4=Funny How Time Slips Away
TTITLE5=Lil' Pony
TTITLE6=Lovey Dovey
TTITLE7=Lil Darlin' (2 Version)
TTITLE8=Three Blind Mice
TTITLE9=Dawn Yawn
TTITLE10=Faed Me
TTITLE11=Papa's Got A Brand New Bag
TTITLE12=Tan Tan's Tune
TTITLE13=Soul Stomp
TTITLE14=Lil' Darlin (1 Version)
TTITLE15=Getaway
TTITLE16=El Bandido
TTITLE17=Sunny
TTITLE18=Don't Make Promises
EXTD=
EXTT0=
EXTT1=
EXTT2=
EXTT3=
EXTT4=
EXTT5=
EXTT6=
EXTT7=
EXTT8=
EXTT9=
EXTT10=
EXTT11=
EXTT12=
EXTT13=
EXTT14=
EXTT15=
EXTT16=
EXTT17=
EXTT18=
PLAYORDER=
